# xmcd
#
# Track frame offsets:
#	151
#	30433
#	38165
#	63476
#	82880
#	103558
#	141159
#	158041
#	181317
#	209341
#
# Disc length: 3211 seconds
#
# Revision: 1
# Processed by: cddbd v1.5.2PL0 Copyright (c) Steve Scherf et al.
# Submitted via: audiograbber 1.83.01
#
DISCID=7b0c890a
DTITLE=Hans Blues and Boogie and the Hammond Band - ...groovin' the Blues - CD 1
DYEAR=1999
DGENRE=Blues
TTITLE0=Introduction blues
TTITLE1=Opener in G
TTITLE2=Addicted to the blues
TTITLE3=Gettin' drunk on you
TTITLE4=Ruf doch an
TTITLE5=Trouble in mind
TTITLE6=Walk, don't run
TTITLE7=Seit dem ersten Kuss
TTITLE8=Fightin' for you
TTITLE9=Love hurts
EXTD=
EXTT0=
EXTT1=
EXTT2=
EXTT3=
EXTT4=
EXTT5=
EXTT6=
EXTT7=
EXTT8=
EXTT9=
PLAYORDER=
